<?xml version="1.0" encoding="UTF-8"?>
<svg xmlns="http://www.w3.org/2000/svg" viewBox="0 0 989.53 161.57">
        <!-- símbolo: naranja -->
        <polygon fill="#F2884B" points="161.08 56.47 141.48 37.07 66.44 121.55 18.32 73.95 0 94.58 67.72 161.57 81.16 146.44 161.08 56.47"/>
        <path fill="#F2884B" d="M492.57,439.92l5.43-5.8-34.78-32.61a7.72,7.72,0,0,0-10.91.36l-12.18,13,27.58,25.86A17.6,17.6,0,0,0,492.57,439.92Z" transform="translate(-361 -399.43)"/>
        <path fill="#F2884B" d="M432.49,482.59a15.35,15.35,0,0,0,21.7-.7l6-6.38-26.94-25.26a8.34,8.34,0,0,0-11.77.38l-10.79,11.51Z" transform="translate(-361 -399.43)"/>
        <ellipse fill="#F2884B" cx="45.82" cy="42.07" rx="11.18" ry="10.52"/>
        <!-- texto: blanco -->
        <path fill="#E4EAF4" d="M531.14,523.36V422.92H566.6v6.33H539.32v38.93h23.07v6.2H539.32v49Z" transform="translate(-361 -399.43)"/>
        <path fill="#E4EAF4" d="M571.31,523.36V422.92H606.9v6.45H579.62v38.81h22.32v6.2H579.62V517h27.65v6.32Z" transform="translate(-361 -399.43)"/>
        <path fill="#E4EAF4" d="M613.1,523.36V422.92h21.83q10.29,0,16.05,3.78a20.24,20.24,0,0,1,8.13,10.36,44.72,44.72,0,0,1,2.35,15.13v40.67a48.61,48.61,0,0,1-2.35,15.87,21.14,21.14,0,0,1-7.94,10.73q-5.58,3.9-15.5,3.9Zm8.19-6.32h13.88q8.07,0,11.91-3.35a15.62,15.62,0,0,0,5-9.11,68.25,68.25,0,0,0,1.11-12.84V452.93a51.36,51.36,0,0,0-1.36-12.71,13.65,13.65,0,0,0-5.33-8.06q-4-2.79-11.53-2.79H621.29Z" transform="translate(-361 -399.43)"/>
        <path fill="#E4EAF4" d="M669.89,523.36V422.92h35.59v6.45H678.2v38.81h22.32v6.2H678.2V517h27.65v6.32Z" transform="translate(-361 -399.43)"/>
        <path fill="#E4EAF4" d="M711.68,523.36V422.92h23.44q9.17,0,14.32,3.16a16.76,16.76,0,0,1,7.19,8.87,38.65,38.65,0,0,1,2,13.14,46.39,46.39,0,0,1-1.18,10.67,19.42,19.42,0,0,1-4.28,8.49,14.56,14.56,0,0,1-8.8,4.53l15.75,51.58h-8.06L737,473.51H719.87v49.85Zm8.19-56.05h14.88c4.21,0,7.46-.74,9.73-2.23a12.12,12.12,0,0,0,4.84-6.51,33.73,33.73,0,0,0,1.42-10.48q0-9.42-3.22-14.13t-12.77-4.71H719.87Z" transform="translate(-361 -399.43)"/>
        <path fill="#E4EAF4" d="M767.73,523.36V422.92h8.06V523.36Z" transform="translate(-361 -399.43)"/>
        <path fill="#E4EAF4" d="M809.52,524.73q-10,0-15.44-4.22a21.41,21.41,0,0,1-7.44-11.22,55.19,55.19,0,0,1-2-15.56V452.56a53.1,53.1,0,0,1,2.17-15.87,20.86,20.86,0,0,1,7.57-10.92q5.38-4,15.19-4,8.93,0,14,3.47a18.86,18.86,0,0,1,7.25,9.92,47,47,0,0,1,2.17,15v5.71h-7.81v-5.46A50.53,50.53,0,0,0,824,438.73a13.08,13.08,0,0,0-4.59-7.56q-3.4-2.67-9.85-2.67-6.82,0-10.48,2.92a14.21,14.21,0,0,0-4.9,8.12,52,52,0,0,0-1.24,12V495a47.53,47.53,0,0,0,1.43,12.64,13.75,13.75,0,0,0,5.08,7.75q3.66,2.67,10.11,2.67t9.92-2.79a13.91,13.91,0,0,0,4.52-7.81,51.5,51.5,0,0,0,1.18-11.72v-6.32H833v5.45a53.42,53.42,0,0,1-2,15.44,20.32,20.32,0,0,1-7.07,10.6Q818.82,524.72,809.52,524.73Z" transform="translate(-361 -399.43)"/>
        <path fill="#E4EAF4" d="M863.7,524.73q-9.8,0-15.31-4a20.91,20.91,0,0,1-7.75-10.85,50.76,50.76,0,0,1-2.23-15.69V451.57A47.69,47.69,0,0,1,840.7,436a20.27,20.27,0,0,1,7.81-10.41q5.52-3.78,15.19-3.78T879,425.59A20.77,20.77,0,0,1,886.77,436a46.58,46.58,0,0,1,2.35,15.57v42.78A50.08,50.08,0,0,1,886.89,510a20.91,20.91,0,0,1-7.75,10.79Q873.62,524.72,863.7,524.73Zm0-6.7q6.94,0,10.6-2.79a14.4,14.4,0,0,0,5.09-7.69,41.19,41.19,0,0,0,1.42-11.47V450.2a41.29,41.29,0,0,0-1.42-11.47,14,14,0,0,0-5-7.56q-3.6-2.67-10.67-2.67-6.81,0-10.54,2.67a13.38,13.38,0,0,0-5.08,7.56,43,43,0,0,0-1.37,11.47v45.88a42.88,42.88,0,0,0,1.37,11.47,14,14,0,0,0,5.08,7.69Q856.88,518,863.7,518Z" transform="translate(-361 -399.43)"/>
        <path fill="#E4EAF4" d="M895.8,523.36V426.51h21.4v82.38h22.24v14.47Z" transform="translate(-361 -399.43)"/>
        <path fill="#E4EAF4" d="M967.78,524.8q-10.87,0-17.21-3.83a21.36,21.36,0,0,1-9.09-11,47.61,47.61,0,0,1-2.75-17.1v-36a47,47,0,0,1,2.75-17.1A21.11,21.11,0,0,1,950.57,429q6.33-3.76,17.21-3.77t17.4,3.77a21.08,21.08,0,0,1,9.15,10.82,47.26,47.26,0,0,1,2.75,17.1v36a47.83,47.83,0,0,1-2.75,17.1,21.33,21.33,0,0,1-9.15,11Q978.79,524.79,967.78,524.8Zm0-15.19c2.23,0,3.87-.55,4.91-1.67a8.42,8.42,0,0,0,2-4.31,29.82,29.82,0,0,0,.48-5.38V451.62a29.6,29.6,0,0,0-.48-5.44,8.42,8.42,0,0,0-2-4.25q-1.56-1.67-4.91-1.67a6.08,6.08,0,0,0-4.66,1.67,8.34,8.34,0,0,0-2,4.25,29.6,29.6,0,0,0-.48,5.44v46.63a34,34,0,0,0,.42,5.38,8.23,8.23,0,0,0,1.91,4.31C963.94,509.06,965.55,509.61,967.78,509.61Z" transform="translate(-361 -399.43)"/>
        <path fill="#E4EAF4" d="M1002.58,523.36l1.67-96.85h23l10.64,56.32,11.48-56.32h22.12l1.68,96.85h-15.19l-1.79-64.45-11.24,64.45H1031.4l-12-64.92L1018,523.36Z" transform="translate(-361 -399.43)"/>
        <path fill="#E4EAF4" d="M1079.94,523.36V426.51h25.23a69.21,69.21,0,0,1,11.78,1,27,27,0,0,1,9.87,3.64,18.44,18.44,0,0,1,6.75,7.66q2.45,5,2.45,13.09a24.91,24.91,0,0,1-1.73,9.86,15.54,15.54,0,0,1-4.9,6.4,18,18,0,0,1-7.6,3.23,19.17,19.17,0,0,1,9.45,3.65,18.16,18.16,0,0,1,5.8,7.83,31.82,31.82,0,0,1,2,11.84,38.26,38.26,0,0,1-2,13,22.45,22.45,0,0,1-5.68,8.91,23.15,23.15,0,0,1-9.15,5.14,42.39,42.39,0,0,1-12.49,1.67Zm21.41-58.11h4.18q4.9,0,7.41-1.49a7.52,7.52,0,0,0,3.41-4.37,23.31,23.31,0,0,0,.9-6.93,13.41,13.41,0,0,0-1.38-6.4,9,9,0,0,0-4.06-3.89,15.45,15.45,0,0,0-6.76-1.31h-3.7Zm0,43.17h4.54q7,0,9.74-3.59t2.7-10.52a25.72,25.72,0,0,0-1.2-8.73,8.53,8.53,0,0,0-4-4.73,15.63,15.63,0,0,0-7.41-1.49h-4.42Z" transform="translate(-361 -399.43)"/>
        <path fill="#E4EAF4" d="M1138.17,523.36l18.3-96.85h24.39l18.06,96.85h-19.73L1176,502.92h-14.23l-3.35,20.44Zm25.47-33.24h10.29l-5.14-37.78Z" transform="translate(-361 -399.43)"/>
        <path fill="#E4EAF4" d="M1201.55,523.36V426.51h26.66a59.58,59.58,0,0,1,17,2.15,20.66,20.66,0,0,1,11.18,7.71q4,5.56,4,15.73a53.13,53.13,0,0,1-1,10.64,19.74,19.74,0,0,1-3.53,8.07,19.32,19.32,0,0,1-7.35,5.68l13.27,46.87h-22.12L1229.05,480H1223v43.4Zm21.4-55.72h6a13,13,0,0,0,7-1.61,8.55,8.55,0,0,0,3.53-4.67,23.28,23.28,0,0,0,1-7.35q0-6.21-2.27-9.68c-1.52-2.32-4.31-3.47-8.37-3.47H1223Z" transform="translate(-361 -399.43)"/>
        <path fill="#E4EAF4" d="M1266.12,523.36V426.51h24.51q12.67,0,19.73,3.17a18.59,18.59,0,0,1,9.92,9.92q2.88,6.76,2.87,17.52v35.15q0,10.89-2.87,17.76a18.77,18.77,0,0,1-9.86,10.1q-7,3.24-19.55,3.23Zm21.4-14.82h3.35c3.26,0,5.62-.48,7.05-1.44a6.3,6.3,0,0,0,2.69-4.3,39.88,39.88,0,0,0,.54-7.18V453.41a29.39,29.39,0,0,0-.66-6.93,5.75,5.75,0,0,0-2.81-3.83c-1.43-.79-3.75-1.19-6.93-1.19h-3.23Z" transform="translate(-361 -399.43)"/>
        <path fill="#E4EAF4" d="M1329.13,523.36V426.51h21.4v96.85Z" transform="translate(-361 -399.43)"/>
      </svg>