<?xml version="1.0" encoding="UTF-8"?>
<svg xmlns="http://www.w3.org/2000/svg" viewBox="0 0 195 195">
        <circle fill="#F2884B" cx="97.5" cy="97.5" r="97.5"/>
        <polygon fill="#0C0F1A" points="177.97 73.67 158.37 54.27 83.33 138.75 35.21 91.15 16.89 111.78 84.61 178.77 98.05 163.64 177.97 73.67"/>
        <path fill="#0C0F1A" d="M755.45,487.69l5.44-5.8-34.79-32.6a7.7,7.7,0,0,0-10.9.35l-12.18,13,27.58,25.85A17.58,17.58,0,0,0,755.45,487.69Z" transform="translate(-607 -430)"/>
        <path fill="#0C0F1A" d="M695.38,530.37a15.36,15.36,0,0,0,21.7-.7l6-6.39L696.12,498a8.35,8.35,0,0,0-11.78.38l-10.78,11.51Z" transform="translate(-607 -430)"/>
        <ellipse fill="#0C0F1A" cx="62.71" cy="59.27" rx="11.18" ry="10.52"/>
      </svg>