<svg xmlns="http://www.w3.org/2000/svg" viewBox="0 0 809.22 248.36">
  <polygon fill="#D4703A" points="244.25 85.62 214.53 56.22 100.74 184.31 27.79 112.13 0 143.41 102.68 245 123.06 222.06 244.25 85.62"/>
  <path fill="#D4703A" d="M711,462.93l8.24-8.79L666.5,404.69a11.69,11.69,0,0,0-16.53.54l-18.48,19.71,41.83,39.21A26.67,26.67,0,0,0,711,462.93Z" transform="translate(-511.51 -401.53)"/>
  <path fill="#D4703A" d="M619.91,527.64a23.29,23.29,0,0,0,32.91-1.06l9.07-9.68L621,478.6a12.64,12.64,0,0,0-17.85.57l-16.36,17.45Z" transform="translate(-511.51 -401.53)"/>
  <ellipse fill="#D4703A" cx="69.49" cy="63.79" rx="16.95" ry="15.95"/>
  <path fill="#0C0F1A" d="M767,521.25V403H809.5v8.33H778.1v44.53h26.14V464H778.1v57.24Z" transform="translate(-511.51 -401.53)"/><path fill="#0C0F1A" d="M814.46,521.25V403h42.79v8.62H825.71V456h25.7v8.18h-25.7v48.77h31.83v8.32Z" transform="translate(-511.51 -401.53)"/><path fill="#0C0F1A" d="M864,521.25V403h25.7q12.41,0,19.34,4.31a23.19,23.19,0,0,1,9.79,12.19,53.65,53.65,0,0,1,2.85,18.26v47A58.79,58.79,0,0,1,918.8,504a24.58,24.58,0,0,1-9.57,12.78q-6.72,4.53-18.54,4.52Zm11.09-8.32H890q9.35,0,13.72-3.87a17.69,17.69,0,0,0,5.55-10.66A91.37,91.37,0,0,0,910.4,483V438.9a62.22,62.22,0,0,0-1.53-15,15.37,15.37,0,0,0-6-9.2q-4.46-3.14-13.36-3.14H875.06Z" transform="translate(-511.51 -401.53)"/><path fill="#0C0F1A" d="M931.14,521.25V403h42.78v8.62H942.38V456h25.7v8.18h-25.7v48.77h31.83v8.32Z" transform="translate(-511.51 -401.53)"/><path fill="#0C0F1A" d="M980.64,521.25V403h26.72q11.1,0,17.45,3.58a20.44,20.44,0,0,1,9.13,10.37,42.49,42.49,0,0,1,2.77,16.13,51.3,51.3,0,0,1-1.46,12.42,24,24,0,0,1-5,9.93,17.18,17.18,0,0,1-9.93,5.4l18.1,60.45h-10.8l-17.38-58.11H991.74v58.11ZM991.74,455h15q7.44,0,11.53-2.48a13.67,13.67,0,0,0,5.84-7.31,35.78,35.78,0,0,0,1.76-12.12q0-10.95-3.8-16.35t-15-5.4H991.74Z" transform="translate(-511.51 -401.53)"/><path fill="#0C0F1A" d="M1046.93,521.25V403H1058V521.25Z" transform="translate(-511.51 -401.53)"/><path fill="#0C0F1A" d="M1097.75,522.71q-12,0-18.47-5a25.33,25.33,0,0,1-9-13.36,65.75,65.75,0,0,1-2.48-18.62v-47a65.63,65.63,0,0,1,2.56-19.28,24,24,0,0,1,9.13-13q6.57-4.68,18.25-4.68,10.65,0,16.72,4.09a22.55,22.55,0,0,1,8.69,11.61,54.46,54.46,0,0,1,2.63,17.89v7.16h-10.52v-6.87a61.54,61.54,0,0,0-1.24-13.29,14.83,14.83,0,0,0-5-8.61q-3.79-3.07-11.24-3.07-7.89,0-11.9,3.29a16.3,16.3,0,0,0-5.41,9.27,62.21,62.21,0,0,0-1.38,13.87v50.38a53.7,53.7,0,0,0,1.68,14.6,15.6,15.6,0,0,0,5.76,8.77q4.1,2.91,11.25,2.92,7.44,0,11.24-3.22a15.64,15.64,0,0,0,5-9,64.55,64.55,0,0,0,1.24-13.5v-7.74h10.52v7a64.24,64.24,0,0,1-2.41,18.39,23.25,23.25,0,0,1-8.47,12.49Q1108.85,522.72,1097.75,522.71Z" transform="translate(-511.51 -401.53)"/><path fill="#0C0F1A" d="M1162.29,522.71q-11.68,0-18.33-4.6a24.27,24.27,0,0,1-9.34-12.85,60.74,60.74,0,0,1-2.7-18.91V437.29a56,56,0,0,1,2.84-18.77,24,24,0,0,1,9.5-12.33q6.65-4.4,18-4.39,11.54,0,18.18,4.39a23.61,23.61,0,0,1,9.42,12.33,57.15,57.15,0,0,1,2.77,18.77V486.5a60.06,60.06,0,0,1-2.7,18.84,24.42,24.42,0,0,1-9.27,12.77Q1174.12,522.71,1162.29,522.71Zm0-8.9q7.89,0,12-3.14a16,16,0,0,0,5.63-8.77,49.92,49.92,0,0,0,1.53-13.06v-53.6a49.16,49.16,0,0,0-1.53-13,15.2,15.2,0,0,0-5.63-8.54q-4.08-3-12-3-7.74,0-11.9,3a15.1,15.1,0,0,0-5.7,8.54,49.16,49.16,0,0,0-1.53,13v53.6a49.92,49.92,0,0,0,1.53,13.06,15.89,15.89,0,0,0,5.7,8.77Q1154.55,513.8,1162.29,513.81Z" transform="translate(-511.51 -401.53)"/>
  <path fill="#0C0F1A" d="M765.4,648.13V529.85h26.14V630.46H818.7v17.67Z" transform="translate(-511.51 -401.53)"/><path fill="#0C0F1A" d="M853.31,649.89q-13.29,0-21-4.68a26.11,26.11,0,0,1-11.1-13.43q-3.36-8.76-3.35-20.88v-44q0-12.26,3.35-20.88a25.8,25.8,0,0,1,11.1-13.21q7.74-4.61,21-4.6,13.44,0,21.25,4.6a25.74,25.74,0,0,1,11.17,13.21q3.36,8.63,3.36,20.88v44q0,12.12-3.36,20.88a26,26,0,0,1-11.17,13.43Q866.75,649.89,853.31,649.89Zm0-18.55q4.08,0,6-2a10.3,10.3,0,0,0,2.48-5.26,36.57,36.57,0,0,0,.58-6.57v-57a36.34,36.34,0,0,0-.58-6.65,10.19,10.19,0,0,0-2.48-5.18q-1.9-2-6-2-3.79,0-5.7,2a10.19,10.19,0,0,0-2.48,5.18,36.34,36.34,0,0,0-.58,6.65v57a41.81,41.81,0,0,0,.51,6.57,10.08,10.08,0,0,0,2.34,5.26Q849.22,631.34,853.31,631.34Z" transform="translate(-511.51 -401.53)"/><path fill="#0C0F1A" d="M895.8,648.13l2.05-118.28h28l13,68.78,14-68.78h27L982,648.13H963.41l-2.19-78.7-13.72,78.7H931l-14.61-79.29-1.75,79.29Z" transform="translate(-511.51 -401.53)"/><path fill="#0C0F1A" d="M990.28,648.13V529.85h30.81a84.8,84.8,0,0,1,14.39,1.17,33.06,33.06,0,0,1,12,4.45,22.36,22.36,0,0,1,8.25,9.35q3,6.06,3,16a30.37,30.37,0,0,1-2.12,12.05,19,19,0,0,1-6,7.81,21.84,21.84,0,0,1-9.27,3.94,23.55,23.55,0,0,1,11.54,4.46,22.2,22.2,0,0,1,7.08,9.56,38.86,38.86,0,0,1,2.41,14.46,46.71,46.71,0,0,1-2.41,15.84,27.37,27.37,0,0,1-6.94,10.88,28.22,28.22,0,0,1-11.17,6.28,52.06,52.06,0,0,1-15.26,2Zm26.14-71h5.11q6,0,9-1.83a9.15,9.15,0,0,0,4.17-5.33,28.67,28.67,0,0,0,1.09-8.47,16.41,16.41,0,0,0-1.68-7.81,10.92,10.92,0,0,0-5-4.75,18.78,18.78,0,0,0-8.25-1.6h-4.53Zm0,52.71H1022q8.61,0,11.9-4.38t3.28-12.85A31.66,31.66,0,0,0,1035.7,602a10.45,10.45,0,0,0-4.82-5.77,19,19,0,0,0-9.06-1.82h-5.4Z" transform="translate(-511.51 -401.53)"/><path fill="#0C0F1A" d="M1061.39,648.13l22.35-118.28h29.79l22,118.28h-24.1l-3.94-25h-17.38l-4.09,25Zm31.11-40.59h12.56l-6.28-46.15Z" transform="translate(-511.51 -401.53)"/><path fill="#0C0F1A" d="M1138.79,648.13V529.85h32.56a72.69,72.69,0,0,1,20.74,2.63,25.12,25.12,0,0,1,13.65,9.42q4.89,6.79,4.89,19.2a65,65,0,0,1-1.17,13,24.26,24.26,0,0,1-4.3,9.86,23.81,23.81,0,0,1-9,6.93l16.2,57.24h-27l-13-53h-7.44v53Zm26.14-68h7.3q5.55,0,8.61-2a10.43,10.43,0,0,0,4.31-5.69,28.51,28.51,0,0,0,1.24-9q0-7.59-2.77-11.83t-10.22-4.23h-8.47Z" transform="translate(-511.51 -401.53)"/><path fill="#0C0F1A" d="M1217.64,648.13V529.85h29.94q15.47,0,24.09,3.87a22.75,22.75,0,0,1,12.12,12.12q3.51,8.25,3.5,21.4v42.93q0,13.29-3.5,21.68a23,23,0,0,1-12,12.34q-8.54,3.94-23.87,3.94Zm26.14-18.1h4.09q6,0,8.61-1.76a7.67,7.67,0,0,0,3.29-5.25,48.56,48.56,0,0,0,.66-8.76V562.71a35.77,35.77,0,0,0-.81-8.47,7,7,0,0,0-3.43-4.67c-1.75-1-4.58-1.46-8.47-1.46h-3.94Z" transform="translate(-511.51 -401.53)"/><path fill="#0C0F1A" d="M1294.6,648.13V529.85h26.13V648.13Z" transform="translate(-511.51 -401.53)"/>
</svg>
