<svg id="Capa_1" data-name="Capa 1" xmlns="http://www.w3.org/2000/svg" viewBox="0 0 246.22 220.78"><defs><style>.cls-1{fill:#023059;}</style></defs><path class="cls-1" d="M9.11,238.67V208.49H19.77v1.9h-8.2v11.7H18.5V224H11.57v14.72Z" transform="translate(-9.11 -18.32)"/><path class="cls-1" d="M21.18,238.67V208.49h10.7v1.93h-8.2v11.67h6.71V224H23.68v12.82H32v1.9Z" transform="translate(-9.11 -18.32)"/><path class="cls-1" d="M33.74,238.67V208.49H40.3a8.7,8.7,0,0,1,4.82,1.13,6.14,6.14,0,0,1,2.45,3.11,13.55,13.55,0,0,1,.7,4.55V229.5a14.7,14.7,0,0,1-.7,4.77,6.35,6.35,0,0,1-2.39,3.22,8,8,0,0,1-4.66,1.18Zm2.46-1.9h4.17a5.35,5.35,0,0,0,3.58-1A4.65,4.65,0,0,0,45.44,233a19.77,19.77,0,0,0,.34-3.85V217.5a15.62,15.62,0,0,0-.41-3.82,4.13,4.13,0,0,0-1.61-2.42,6,6,0,0,0-3.46-.84H36.2Z" transform="translate(-9.11 -18.32)"/><path class="cls-1" d="M50.81,238.67V208.49H61.5v1.93H53.3v11.67H60V224H53.3v12.82h8.31v1.9Z" transform="translate(-9.11 -18.32)"/><path class="cls-1" d="M63.36,238.67V208.49h7a8.16,8.16,0,0,1,4.3.95,5,5,0,0,1,2.16,2.66,11.66,11.66,0,0,1,.62,4,13.58,13.58,0,0,1-.36,3.2,5.79,5.79,0,0,1-1.28,2.56,4.45,4.45,0,0,1-2.65,1.36l4.73,15.5H75.51l-4.54-15H65.82v15Zm2.46-16.84h4.47a5.31,5.31,0,0,0,2.93-.68,3.55,3.55,0,0,0,1.45-2,10,10,0,0,0,.43-3.15,7.55,7.55,0,0,0-1-4.25q-1-1.41-3.84-1.41H65.82Z" transform="translate(-9.11 -18.32)"/><path class="cls-1" d="M80.21,238.67V208.49h2.42v30.18Z" transform="translate(-9.11 -18.32)"/><path class="cls-1" d="M92.76,239.08a7.43,7.43,0,0,1-4.64-1.27,6.43,6.43,0,0,1-2.23-3.37,16.62,16.62,0,0,1-.62-4.68V217.39a16.14,16.14,0,0,1,.65-4.77,6.33,6.33,0,0,1,2.28-3.28,7.61,7.61,0,0,1,4.56-1.19,7.42,7.42,0,0,1,4.21,1,5.66,5.66,0,0,1,2.18,3,14.06,14.06,0,0,1,.65,4.51v1.72H97.46v-1.64a15,15,0,0,0-.36-3.52A3.92,3.92,0,0,0,95.72,211a4.74,4.74,0,0,0-3-.8,5,5,0,0,0-3.15.88,4.29,4.29,0,0,0-1.47,2.44,15.6,15.6,0,0,0-.37,3.61v13a14.05,14.05,0,0,0,.43,3.8,4.08,4.08,0,0,0,1.53,2.33,5,5,0,0,0,3,.8,4.55,4.55,0,0,0,3-.83,4.19,4.19,0,0,0,1.36-2.35,15.31,15.31,0,0,0,.36-3.52v-1.9H99.8v1.64a16.05,16.05,0,0,1-.61,4.64,6.14,6.14,0,0,1-2.12,3.18A7,7,0,0,1,92.76,239.08Z" transform="translate(-9.11 -18.32)"/><path class="cls-1" d="M109,239.08a7.74,7.74,0,0,1-4.6-1.2,6.3,6.3,0,0,1-2.33-3.26,15.43,15.43,0,0,1-.67-4.71V217.09a14.27,14.27,0,0,1,.69-4.67,6,6,0,0,1,2.35-3.13,9.75,9.75,0,0,1,9.15,0,6.26,6.26,0,0,1,2.35,3.13,14,14,0,0,1,.7,4.67V230a15,15,0,0,1-.67,4.69,6.18,6.18,0,0,1-2.33,3.24A7.79,7.79,0,0,1,109,239.08Zm0-2a5.16,5.16,0,0,0,3.19-.83,4.38,4.38,0,0,0,1.53-2.31,12.6,12.6,0,0,0,.43-3.45V216.68a12.58,12.58,0,0,0-.43-3.44,4.25,4.25,0,0,0-1.51-2.28,6.74,6.74,0,0,0-6.37,0,4,4,0,0,0-1.53,2.28,13,13,0,0,0-.41,3.44v13.79a13.05,13.05,0,0,0,.41,3.45,4.16,4.16,0,0,0,1.53,2.31A5.17,5.17,0,0,0,109,237.06Z" transform="translate(-9.11 -18.32)"/><path class="cls-1" d="M118.69,238.67V209.56h6.43v24.76h6.68v4.35Z" transform="translate(-9.11 -18.32)"/><path class="cls-1" d="M140.32,239.1a10,10,0,0,1-5.17-1.15,6.5,6.5,0,0,1-2.74-3.31,14.36,14.36,0,0,1-.82-5.14V218.69a14.21,14.21,0,0,1,.82-5.14,6.4,6.4,0,0,1,2.74-3.25,10,10,0,0,1,5.17-1.13,10.25,10.25,0,0,1,5.23,1.13,6.33,6.33,0,0,1,2.75,3.25,14.21,14.21,0,0,1,.82,5.14V229.5a14.36,14.36,0,0,1-.82,5.14,6.42,6.42,0,0,1-2.75,3.31A10.24,10.24,0,0,1,140.32,239.1Zm0-4.56a1.9,1.9,0,0,0,1.47-.51,2.44,2.44,0,0,0,.61-1.29,8.72,8.72,0,0,0,.15-1.62v-14a8.62,8.62,0,0,0-.15-1.64,2.44,2.44,0,0,0-.61-1.27,1.9,1.9,0,0,0-1.47-.5,1.8,1.8,0,0,0-1.4.5,2.44,2.44,0,0,0-.61,1.27,8.62,8.62,0,0,0-.15,1.64v14a10.84,10.84,0,0,0,.13,1.62,2.4,2.4,0,0,0,.57,1.29A1.86,1.86,0,0,0,140.32,234.54Z" transform="translate(-9.11 -18.32)"/><path class="cls-1" d="M150.78,238.67l.5-29.11h6.9l3.2,16.93,3.45-16.93h6.64l.51,29.11h-4.57l-.54-19.37-3.37,19.37h-4.06l-3.6-19.51-.43,19.51Z" transform="translate(-9.11 -18.32)"/><path class="cls-1" d="M174,238.67V209.56h7.58a21,21,0,0,1,3.54.29,8.06,8.06,0,0,1,3,1.1,5.5,5.5,0,0,1,2,2.3,8.92,8.92,0,0,1,.73,3.93,7.4,7.4,0,0,1-.52,3,4.63,4.63,0,0,1-1.47,1.93,5.41,5.41,0,0,1-2.28,1,5.84,5.84,0,0,1,2.84,1.09,5.53,5.53,0,0,1,1.74,2.36,9.39,9.39,0,0,1,.59,3.55,11.35,11.35,0,0,1-.59,3.9,6.49,6.49,0,0,1-4.46,4.22,12.6,12.6,0,0,1-3.75.51Zm6.43-17.46h1.26a4.43,4.43,0,0,0,2.23-.45,2.26,2.26,0,0,0,1-1.32,7,7,0,0,0,.27-2.08,4,4,0,0,0-.41-1.92,2.66,2.66,0,0,0-1.22-1.17,4.68,4.68,0,0,0-2-.39h-1.12Zm0,13h1.37a3.46,3.46,0,0,0,2.93-1.08,5.21,5.21,0,0,0,.81-3.16,7.77,7.77,0,0,0-.36-2.63,2.59,2.59,0,0,0-1.19-1.42,4.67,4.67,0,0,0-2.23-.45h-1.33Z" transform="translate(-9.11 -18.32)"/><path class="cls-1" d="M191.52,238.67l5.5-29.11h7.33l5.42,29.11h-5.92l-1-6.15H198.6l-1,6.15Zm7.66-10h3.09l-1.55-11.36Z" transform="translate(-9.11 -18.32)"/><path class="cls-1" d="M210.57,238.67V209.56h8a17.91,17.91,0,0,1,5.1.65,6.14,6.14,0,0,1,3.36,2.32,8,8,0,0,1,1.2,4.72,16.15,16.15,0,0,1-.28,3.2,6.23,6.23,0,0,1-1.06,2.43,5.9,5.9,0,0,1-2.21,1.7l4,14.09H222l-3.2-13H217v13ZM217,221.92h1.79a3.94,3.94,0,0,0,2.12-.48A2.51,2.51,0,0,0,222,220a6.85,6.85,0,0,0,.31-2.21,5.31,5.31,0,0,0-.68-2.91,2.79,2.79,0,0,0-2.52-1H217Z" transform="translate(-9.11 -18.32)"/><path class="cls-1" d="M230,238.67V209.56h7.36a14.73,14.73,0,0,1,5.93,1,5.54,5.54,0,0,1,3,3,13.49,13.49,0,0,1,.87,5.26v10.57a13.9,13.9,0,0,1-.87,5.33,5.64,5.64,0,0,1-3,3,14.45,14.45,0,0,1-5.87,1Zm6.43-4.46h1a3.89,3.89,0,0,0,2.11-.43,1.85,1.85,0,0,0,.81-1.29,11.81,11.81,0,0,0,.17-2.16V217.65a9,9,0,0,0-.2-2.09,1.75,1.75,0,0,0-.85-1.15,4.48,4.48,0,0,0-2.08-.36h-1Z" transform="translate(-9.11 -18.32)"/><path class="cls-1" d="M248.9,238.67V209.56h6.43v29.11Z" transform="translate(-9.11 -18.32)"/><polygon class="cls-1" points="210.67 62.48 188.98 41.02 105.94 134.51 52.7 81.83 32.42 104.66 107.36 178.79 122.23 162.05 210.67 62.48"/><path class="cls-1" d="M187.12,63.13l6-6.42L154.65,20.63a8.54,8.54,0,0,0-12.07.39L129.1,35.4,159.62,64A19.45,19.45,0,0,0,187.12,63.13Z" transform="translate(-9.11 -18.32)"/><path class="cls-1" d="M120.64,110.35a17,17,0,0,0,24-.78l6.62-7.06L121.46,74.56a9.21,9.21,0,0,0-13,.42L96.5,87.71Z" transform="translate(-9.11 -18.32)"/><ellipse class="cls-1" cx="83.13" cy="46.55" rx="12.37" ry="11.64"/></svg>